<?xml version="1.0" encoding="UTF-8"?>
<svg width="429px" height="152px" viewBox="0 0 429 152" version="1.1" xmlns="http://www.w3.org/2000/svg" xmlns:xlink="http://www.w3.org/1999/xlink">
    <title>store_sprite</title>
    <defs>
        <polygon id="path-1" points="-9.79541028e-16 0 119.999449 0 119.999449 34.9997268 -9.79541028e-16 34.9997268"></polygon>
        <polygon id="path-3" points="0 35 120 35 120 0 0 0"></polygon>
        <path d="M0,3.62715251 L0,3.7555618 L0,3.88397109 L3.65985801,7.51167002 L3.74312433,7.46467769 L8.07903867,5.02326199 C9.31755623,4.32602688 9.31755623,3.18509672 8.07903867,2.48786161 L8.07903867,2.48786161 L3.74367576,0.046445912 L3.66040944,0 L0,3.62715251 Z" id="path-5"></path>
        <linearGradient x1="80.7518117%" y1="50.0018186%" x2="-157.291533%" y2="50.0018186%" id="linearGradient-7">
            <stop stop-color="#FEDA02" offset="0%"></stop>
            <stop stop-color="#F8F8F8" offset="100%"></stop>
        </linearGradient>
        <path d="M0,10.9437497 C0.408611539,11.3721449 1.08246215,11.4256943 1.8417848,10.9978455 L1.8417848,10.9978455 L14.787216,3.70911589 L11.0440916,0 L0,10.9437497 Z" id="path-8"></path>
        <linearGradient x1="86.2466289%" y1="31.2464485%" x2="-50.1407335%" y2="134.460574%" id="linearGradient-10">
            <stop stop-color="#EE4547" offset="0%"></stop>
            <stop stop-color="#C7186D" offset="100%"></stop>
        </linearGradient>
        <path d="M0,0.348617551 L11.0440916,11.2929137 L14.7877674,7.58379779 L1.8417848,0.295068147 C1.48611079,0.0945310914 1.14863406,0 0.848654734,0 L0.848654734,0 C0.508972268,0 0.217264435,0.121305794 0,0.348617551" id="path-11"></path>
        <linearGradient x1="-50.7465097%" y1="-34.9123508%" x2="60.6060853%" y2="49.3512263%" id="linearGradient-13">
            <stop stop-color="#73C169" offset="0%"></stop>
            <stop stop-color="#289E6F" offset="100%"></stop>
        </linearGradient>
        <polygon id="path-14" points="0 35 120 35 120 0 0 0"></polygon>
        <polygon id="path-16" points="-9.79541028e-16 0 119.999449 0 119.999449 34.9997268 -9.79541028e-16 34.9997268"></polygon>
        <polygon id="path-18" points="0 35 120 35 120 0 0 0"></polygon>
    </defs>
    <g id="store_sprite" stroke="none" stroke-width="1" fill="none" fill-rule="evenodd">
        <rect fill="#666" x="0" y="0" width="429" height="152"></rect>
        <g id="Group" transform="translate(87.000000, 59.000000)">
            <g id="Group-31" transform="translate(136.000000, 0.000000)">
                <g id="Group-9">
                    <path d="M115.484098,34.5589278 L4.51601222,34.5589278 C2.26782161,34.5589278 0.445336948,32.7530014 0.445336948,30.5252369 L0.445336948,4.47563736 C0.445336948,2.24787286 2.26782161,0.441400091 4.51601222,0.441400091 L115.484098,0.441400091 C117.732289,0.441400091 119.554773,2.24787286 119.554773,4.47563736 L119.554773,30.5252369 C119.554773,32.7530014 117.732289,34.5589278 115.484098,34.5589278" id="Fill-1" fill="#000000"></path>
                    <g id="Group-5" transform="translate(0.000276, 0.000273)">
                        <mask id="mask-2" fill="white">
                            <use xlink:href="#path-1"></use>
                        </mask>
                        <g id="Clip-4"></g>
                        <path d="M4.51568136,0.882472328 C2.51673828,0.882472328 0.89056361,2.49387226 0.89056361,4.47520022 L0.89056361,30.5247998 C0.89056361,32.5055813 2.51673828,34.1169812 4.51568136,34.1169812 L115.483767,34.1169812 C117.48271,34.1169812 119.108885,32.5055813 119.108885,30.5247998 L119.108885,4.47520022 C119.108885,2.49387226 117.48271,0.882472328 115.483767,0.882472328 L4.51568136,0.882472328 Z M115.483767,35 L4.51568136,35 C2.02541185,35 -9.79541028e-16,32.9924438 -9.79541028e-16,30.5247998 L-9.79541028e-16,4.47520022 C-9.79541028e-16,2.00755624 2.02541185,0 4.51568136,0 L115.483767,0 C117.973485,0 119.999449,2.00755624 119.999449,4.47520022 L119.999449,30.5247998 C119.999449,32.9924438 117.973485,35 115.483767,35 L115.483767,35 Z" id="Fill-3" fill="#A6A8AB" mask="url(#mask-2)"></path>
                    </g>
                    <mask id="mask-4" fill="white">
                        <use xlink:href="#path-3"></use>
                    </mask>
                    <g id="Clip-7"></g>
                    <path d="M94.9467638,26.3900208 L96.6016129,26.3900208 L96.6016129,15.4031037 L94.9467638,15.4031037 L94.9467638,26.3900208 Z M109.853089,19.3608418 L107.95561,24.1245531 L107.898812,24.1245531 L105.930198,19.3608418 L104.147416,19.3608418 L107.099786,26.0184535 L105.416814,29.7215587 L107.142798,29.7215587 L111.69322,19.3608418 L109.853089,19.3608418 Z M100.467155,25.1419918 C99.9250971,25.1419918 99.169083,24.8736983 99.169083,24.2092486 C99.169083,23.3612009 100.110378,23.0360795 100.92319,23.0360795 C101.651081,23.0360795 101.993521,23.1912635 102.435218,23.4032754 C102.307286,24.4212605 101.422788,25.1419918 100.467155,25.1419918 L100.467155,25.1419918 Z M100.666774,19.1204159 C99.4685109,19.1204159 98.2272362,19.6438887 97.7138524,20.8028508 L99.1834203,21.4104726 C99.4971854,20.8028508 100.081704,20.6050458 100.694897,20.6050458 C101.551272,20.6050458 102.421432,21.1137652 102.435218,22.0180944 L102.435218,22.1312038 C102.13579,21.9618129 101.493923,21.70718 100.709234,21.70718 C99.1260713,21.70718 97.5142339,22.5694347 97.5142339,24.1808346 C97.5142339,25.6507111 98.8123061,26.5982077 100.266985,26.5982077 C101.379776,26.5982077 101.993521,26.103149 102.378421,25.5239411 L102.435218,25.5239411 L102.435218,26.3719888 L104.03327,26.3719888 L104.03327,22.1596178 C104.03327,20.2088895 102.563702,19.1204159 100.666774,19.1204159 L100.666774,19.1204159 Z M90.4393539,20.6984841 L88.0852882,20.6984841 L88.0852882,16.9325402 L90.4393539,16.9325402 C91.6762172,16.9325402 92.3792937,17.9472468 92.3792937,18.8155122 C92.3792937,19.6668384 91.6762172,20.6984841 90.4393539,20.6984841 L90.4393539,20.6984841 Z M90.3963422,15.4031037 L86.4309905,15.4031037 L86.4309905,26.3900208 L88.0852882,26.3900208 L88.0852882,22.2273742 L90.3963422,22.2273742 C92.2309583,22.2273742 94.0335914,20.9115888 94.0335914,18.8155122 C94.0335914,16.718889 92.2309583,15.4031037 90.3963422,15.4031037 L90.3963422,15.4031037 Z M68.7724651,25.1441775 C67.6293454,25.1441775 66.6720585,24.195588 66.6720585,22.8929168 C66.6720585,21.5760386 67.6293454,20.6132422 68.7724651,20.6132422 C69.9012476,20.6132422 70.7873998,21.5760386 70.7873998,22.8929168 C70.7873998,24.195588 69.9012476,25.1441775 68.7724651,25.1441775 L68.7724651,25.1441775 Z M70.6727018,19.9761135 L70.6159042,19.9761135 C70.2442387,19.5373363 69.5295821,19.14118 68.6296441,19.14118 C66.7437447,19.14118 65.0144521,20.7831796 65.0144521,22.8929168 C65.0144521,24.9884471 66.7437447,26.6167861 68.6296441,26.6167861 C69.5295821,26.6167861 70.2442387,26.2200834 70.6159042,25.7670991 L70.6727018,25.7670991 L70.6727018,26.3053253 C70.6727018,27.7353129 69.9012476,28.499758 68.6583186,28.499758 C67.6436827,28.499758 67.0150495,27.7779339 66.7580819,27.1686728 L65.3144315,27.7637269 C65.7291087,28.7549373 66.8292167,29.9723666 68.6583186,29.9723666 C70.601567,29.9723666 72.2448361,28.8396328 72.2448361,26.0785599 L72.2448361,19.3673989 L70.6727018,19.3673989 L70.6727018,19.9761135 Z M73.3874044,26.3900208 L75.0450107,26.3900208 L75.0450107,15.4031037 L73.3874044,15.4031037 L73.3874044,26.3900208 Z M77.4884084,22.7656004 C77.4459481,21.3214057 78.6171909,20.5853746 79.4603313,20.5853746 C80.1176389,20.5853746 80.6751373,20.910496 80.8604186,21.3782337 L77.4884084,22.7656004 Z M82.6321715,21.5197571 C82.3184064,20.6842771 81.360568,19.14118 79.4029823,19.14118 C77.4597339,19.14118 75.8451394,20.6558631 75.8451394,22.8787098 C75.8451394,24.9742401 77.4459481,26.6167861 79.5888151,26.6167861 C81.3175562,26.6167861 82.3184064,25.5687478 82.7325322,24.9600331 L81.4465915,24.1108925 C81.0175769,24.7338142 80.4319555,25.1441775 79.5888151,25.1441775 C78.7456747,25.1441775 78.1457161,24.7616817 77.7597133,24.0114436 L82.803667,21.9443274 L82.6321715,21.5197571 Z M42.4481768,20.2875744 L42.4481768,21.8732924 L46.2773246,21.8732924 C46.1631781,22.7656004 45.8631988,23.416936 45.4055097,23.8699202 C44.8485628,24.4223534 43.9767479,25.031068 42.4481768,25.031068 C40.0902511,25.031068 38.2473635,23.1475497 38.2473635,20.8115935 C38.2473635,18.4756374 40.0902511,16.592119 42.4481768,16.592119 C43.7197803,16.592119 44.6483928,17.0877242 45.3343749,17.7248529 L46.4631574,16.606326 C45.5058705,15.7003575 44.2342669,15.0064009 42.4481768,15.0064009 C39.2189877,15.0064009 36.5037337,17.6117434 36.5037337,20.8115935 C36.5037337,24.0114436 39.2189877,26.6167861 42.4481768,26.6167861 C44.1912552,26.6167861 45.5058705,26.050146 46.5342922,24.9884471 C47.5919399,23.9404087 47.9205937,22.4683465 47.9205937,21.2787848 C47.9205937,20.910496 47.8919192,20.5711676 47.8345702,20.2875744 L42.4481768,20.2875744 Z M52.2741539,25.1441775 C51.1304827,25.1441775 50.1450727,24.209795 50.1450727,22.8787098 C50.1450727,21.5334176 51.1304827,20.6132422 52.2741539,20.6132422 C53.4167222,20.6132422 54.4026836,21.5334176 54.4026836,22.8787098 C54.4026836,24.209795 53.4167222,25.1441775 52.2741539,25.1441775 L52.2741539,25.1441775 Z M52.2741539,19.14118 C50.187533,19.14118 48.4874664,20.7126911 48.4874664,22.8787098 C48.4874664,25.031068 50.187533,26.6167861 52.2741539,26.6167861 C54.3602233,26.6167861 56.06029,25.031068 56.06029,22.8787098 C56.06029,20.7126911 54.3602233,19.14118 52.2741539,19.14118 L52.2741539,19.14118 Z M60.5340624,25.1441775 C59.3909427,25.1441775 58.4049813,24.209795 58.4049813,22.8787098 C58.4049813,21.5334176 59.3909427,20.6132422 60.5340624,20.6132422 C61.6771822,20.6132422 62.6631436,21.5334176 62.6631436,22.8787098 C62.6631436,24.209795 61.6771822,25.1441775 60.5340624,25.1441775 L60.5340624,25.1441775 Z M60.5340624,19.14118 C58.447993,19.14118 56.747375,20.7126911 56.747375,22.8787098 C56.747375,25.031068 58.447993,26.6167861 60.5340624,26.6167861 C62.6201319,26.6167861 64.3207499,25.031068 64.3207499,22.8787098 C64.3207499,20.7126911 62.6201319,19.14118 60.5340624,19.14118 L60.5340624,19.14118 Z" id="Fill-6" fill="#FEFEFE" mask="url(#mask-4)"></path>
                    <path d="M9.35852768,6.65733845 C9.10045723,6.92781759 8.94826184,7.34692364 8.94826184,7.89116045 L8.94826184,27.3115623 C8.94826184,27.8557991 9.10045723,28.2754516 9.35852768,28.5453843 L9.42414815,28.6093157 L20.4026193,17.7300439 L20.4026193,17.6016346 L20.4026193,17.4732253 L9.42414815,6.59395344 L9.35852768,6.65733845 Z" id="Fill-8" fill="#5AC8F2" mask="url(#mask-4)"></path>
                </g>
                <g id="Group-12" transform="translate(20.402454, 13.845800)">
                    <mask id="mask-6" fill="white">
                        <use xlink:href="#path-5"></use>
                    </mask>
                    <g id="Clip-11"></g>
                    <path d="M0,3.62715251 L0,3.7555618 L0,3.88397109 L3.65985801,7.51167002 L3.74312433,7.46467769 L8.07903867,5.02326199 C9.31755623,4.32602688 9.31755623,3.18509672 8.07903867,2.48786161 L8.07903867,2.48786161 L3.74367576,0.046445912 L3.66040944,0 L0,3.62715251 Z" id="Fill-10" fill="url(#linearGradient-7)" mask="url(#mask-6)"></path>
                </g>
                <g id="Group-15" transform="translate(9.358362, 17.601361)">
                    <mask id="mask-9" fill="white">
                        <use xlink:href="#path-8"></use>
                    </mask>
                    <g id="Clip-14"></g>
                    <path d="M0,10.9437497 C0.408611539,11.3721449 1.08246215,11.4256943 1.8417848,10.9978455 L1.8417848,10.9978455 L14.787216,3.70911589 L11.0440916,0 L0,10.9437497 Z" id="Fill-13" fill="url(#linearGradient-10)" mask="url(#mask-9)"></path>
                </g>
                <g id="Group-18" transform="translate(9.358362, 6.308448)">
                    <mask id="mask-12" fill="white">
                        <use xlink:href="#path-11"></use>
                    </mask>
                    <g id="Clip-17"></g>
                    <path d="M0,0.348617551 L11.0440916,11.2929137 L14.7877674,7.58379779 L1.8417848,0.295068147 C1.48611079,0.0945310914 1.14863406,0 0.848654734,0 L0.848654734,0 C0.508972268,0 0.217264435,0.121305794 0,0.348617551" id="Fill-16" fill="url(#linearGradient-13)" mask="url(#mask-12)"></path>
                </g>
                <g id="Group-30">
                    <path d="M40.7648186,7.27862083 C40.4317533,6.9862848 39.992813,6.79831546 39.5081038,6.79831546 C38.4173701,6.79831546 37.5769869,7.69116981 37.5769869,8.78729334 C37.5769869,9.88287044 38.4173701,10.7680749 39.5081038,10.7680749 C40.446642,10.7680749 41.1282127,10.227663 41.1739816,9.3719654 L39.6895251,9.3719654 L39.6895251,8.76434359 L41.976316,8.76434359 C41.976316,10.580652 40.9997289,11.4358032 39.5081038,11.4358032 C38.0236473,11.4358032 36.872256,10.2500664 36.872256,8.78729334 C36.872256,7.31577756 38.0236473,6.13004075 39.5081038,6.13004075 C40.196843,6.13004075 40.8177561,6.39341639 41.2721366,6.81306886 L40.7648186,7.27862083 Z" id="Fill-19" fill="#FEFEFE"></path>
                    <polygon id="Fill-21" fill="#FEFEFE" points="46.0290145 6.19058436 46.0290145 6.84301282 43.6435172 6.84301282 43.6435172 8.49430159 45.7262781 8.49430159 45.7262781 9.14727647 43.6435172 9.14727647 43.6435172 10.7084055 46.1045608 10.7084055 46.1045608 11.360834 42.9393378 11.360834 42.9393378 6.19058436"></polygon>
                    <polygon id="Fill-23" fill="#FEFEFE" points="50.5958689 6.19058436 50.5958689 6.85066273 49.0132574 6.85066273 49.0132574 11.360834 48.3013579 11.360834 48.3013579 6.85066273 46.7187464 6.85066273 46.7187464 6.19058436"></polygon>
                    <mask id="mask-15" fill="white">
                        <use xlink:href="#path-14"></use>
                    </mask>
                    <g id="Clip-26"></g>
                    <polygon id="Fill-25" fill="#FEFEFE" mask="url(#mask-15)" points="53.2700411 11.3606701 53.9742205 11.3606701 53.9742205 6.19042043 53.2700411 6.19042043"></polygon>
                    <polygon id="Fill-27" fill="#FEFEFE" mask="url(#mask-15)" points="58.7757645 6.19058436 58.7757645 6.85066273 57.193153 6.85066273 57.193153 11.360834 56.4812536 11.360834 56.4812536 6.85066273 54.8986421 6.85066273 54.8986421 6.19058436"></polygon>
                    <path d="M63.7446132,10.7604796 C64.8425155,10.7604796 65.6834501,9.88292508 65.6834501,8.78734798 C65.6834501,7.69122445 64.8425155,6.80602001 63.7446132,6.80602001 C62.6538796,6.80602001 61.8134963,7.69122445 61.8134963,8.78734798 C61.8134963,9.88292508 62.6538796,10.7604796 63.7446132,10.7604796 M63.7446132,6.13009539 C65.2362383,6.13009539 66.3953496,7.3158322 66.3953496,8.78734798 C66.3953496,10.250121 65.2362383,11.4358578 63.7446132,11.4358578 C62.2607081,11.4358578 61.1093169,10.250121 61.1093169,8.78734798 C61.1093169,7.3158322 62.2607081,6.13009539 63.7446132,6.13009539" id="Fill-28" fill="#FEFEFE" mask="url(#mask-15)"></path>
                    <polygon id="Fill-29" fill="#FEFEFE" mask="url(#mask-15)" points="70.5610367 11.3607794 68.1832594 7.46642624 68.1832594 11.3607794 67.47908 11.3607794 67.47908 6.19052972 68.1760908 6.19052972 70.5307079 10.0548296 70.5307079 6.19052972 71.2354387 6.19052972 71.2354387 11.3607794"></polygon>
                </g>
            </g>
            <g id="Group-34">
                <path d="M115.484098,34.5587092 L4.51601222,34.5587092 C2.26782161,34.5587092 0.445336948,32.7527829 0.445336948,30.5250183 L0.445336948,4.47541879 C0.445336948,2.24765429 2.26782161,0.441181522 4.51601222,0.441181522 L115.484098,0.441181522 C117.732289,0.441181522 119.554773,2.24765429 119.554773,4.47541879 L119.554773,30.5250183 C119.554773,32.7527829 117.732289,34.5587092 115.484098,34.5587092" id="Fill-1" fill="#000000"></path>
                <g id="Group-5" transform="translate(0.000276, 0.000273)">
                    <mask id="mask-17" fill="white">
                        <use xlink:href="#path-16"></use>
                    </mask>
                    <g id="Clip-4"></g>
                    <path d="M4.51568136,0.882472328 C2.51673828,0.882472328 0.89056361,2.49387226 0.89056361,4.47520022 L0.89056361,30.5247998 C0.89056361,32.5055813 2.51673828,34.1169812 4.51568136,34.1169812 L115.483767,34.1169812 C117.48271,34.1169812 119.108885,32.5055813 119.108885,30.5247998 L119.108885,4.47520022 C119.108885,2.49387226 117.48271,0.882472328 115.483767,0.882472328 L4.51568136,0.882472328 Z M115.483767,35 L4.51568136,35 C2.02541185,35 -9.79541028e-16,32.9924438 -9.79541028e-16,30.5247998 L-9.79541028e-16,4.47520022 C-9.79541028e-16,2.00755624 2.02541185,0 4.51568136,0 L115.483767,0 C117.973485,0 119.999449,2.00755624 119.999449,4.47520022 L119.999449,30.5247998 C119.999449,32.9924438 117.973485,35 115.483767,35 L115.483767,35 Z" id="Fill-3" fill="#A6A8AB" mask="url(#mask-17)"></path>
                </g>
                <path d="M41.6119293,9.15995348 L41.1553432,7.74417279 C41.0439538,7.3944624 40.9491074,7.00213105 40.8630839,6.66935975 L40.845438,6.66935975 C40.759966,7.00213105 40.6733911,7.40265874 40.5702732,7.74417279 L40.1225099,9.15995348 L41.6119293,9.15995348 Z M39.950463,9.95335894 L39.4508651,11.5822444 L38.3579257,11.5822444 L40.2173563,5.83333333 L41.5689176,5.83333333 L43.4537141,11.5822444 L42.317763,11.5822444 L41.7927992,9.95335894 L39.950463,9.95335894 Z" id="Fill-6" fill="#FEFEFE"></path>
                <path d="M45.0362705,7.42834059 L45.7161868,9.53534573 C45.8369506,9.90199522 45.9224226,10.2347665 46.0001746,10.5757342 L46.026092,10.5757342 C46.1038439,10.2347665 46.1981389,9.91019156 46.3100797,9.53534573 L46.9811732,7.42834059 L48.0917584,7.42834059 L46.4909496,11.5822444 L45.4492935,11.5822444 L43.8914965,7.42834059 L45.0362705,7.42834059 Z" id="Fill-8" fill="#FEFEFE"></path>
                <path d="M51.2843324,9.5521209 C50.535487,9.54337814 49.8208304,9.69746928 49.8208304,10.3285873 C49.8208304,10.7378577 50.0877237,10.9252806 50.4235462,10.9252806 C50.8536636,10.9252806 51.1552972,10.6526158 51.2584151,10.3537227 C51.2843324,10.2772235 51.2843324,10.2007244 51.2843324,10.1236788 L51.2843324,9.5521209 Z M52.3171656,10.584313 C52.3171656,10.9597052 52.33426,11.3263547 52.3860947,11.5820805 L51.4304621,11.5820805 L51.3532615,11.1219927 L51.3273442,11.1219927 C51.0780966,11.4454748 50.6386049,11.6760651 50.0877237,11.6760651 C49.2440319,11.6760651 48.7709027,11.070629 48.7709027,10.439511 C48.7709027,9.39857618 49.709441,8.86144287 51.2584151,8.87018563 L51.2584151,8.80188282 C51.2584151,8.52867157 51.1464743,8.07678017 50.4064518,8.07678017 C49.9934288,8.07678017 49.5627599,8.20464303 49.2787721,8.38386961 L49.0719849,7.70138791 C49.38189,7.513965 49.9244997,7.33473842 50.5867702,7.33473842 C51.93006,7.33473842 52.3171656,8.17896117 52.3171656,9.09148674 L52.3171656,10.584313 Z" id="Fill-10" fill="#FEFEFE"></path>
                <mask id="mask-19" fill="white">
                    <use xlink:href="#path-18"></use>
                </mask>
                <g id="Clip-13"></g>
                <path d="M53.8137536,11.5825176 L54.8725042,11.5825176 L54.8725042,7.4286138 L53.8137536,7.4286138 L53.8137536,11.5825176 Z M54.3387175,6.83137402 C53.9858006,6.83137402 53.7536475,6.57510187 53.7536475,6.26855885 C53.7536475,5.94453031 53.9946235,5.69700092 54.3475404,5.69700092 C54.7087287,5.69700092 54.9326103,5.94453031 54.9414333,6.26855885 C54.9414333,6.57510187 54.7087287,6.83137402 54.3475404,6.83137402 L54.3387175,6.83137402 Z" id="Fill-12" fill="#FEFEFE" mask="url(#mask-19)"></path>
                <polygon id="Fill-14" fill="#FEFEFE" mask="url(#mask-19)" points="56.395561 11.5825176 57.4543115 11.5825176 57.4543115 5.51777434 56.395561 5.51777434"></polygon>
                <path d="M61.2060933,9.5521209 C60.4577993,9.54337814 59.7431427,9.69746928 59.7431427,10.3285873 C59.7431427,10.7378577 60.0094846,10.9252806 60.3453071,10.9252806 C60.7759759,10.9252806 61.0776095,10.6526158 61.180176,10.3537227 C61.2060933,10.2772235 61.2060933,10.2007244 61.2060933,10.1236788 L61.2060933,9.5521209 Z M62.239478,10.584313 C62.239478,10.9597052 62.2565724,11.3263547 62.3078556,11.5820805 L61.3527744,11.5820805 L61.2750224,11.1219927 L61.2491051,11.1219927 C60.9998575,11.4454748 60.5609172,11.6760651 60.0094846,11.6760651 C59.1663442,11.6760651 58.6926636,11.070629 58.6926636,10.439511 C58.6926636,9.39857618 59.6312019,8.86144287 61.180176,8.87018563 L61.180176,8.80188282 C61.180176,8.52867157 61.0687866,8.07678017 60.3282127,8.07678017 C59.9151897,8.07678017 59.4845208,8.20464303 59.2005331,8.38386961 L58.9942973,7.70138791 C59.3042024,7.513965 59.8462606,7.33473842 60.5090826,7.33473842 C61.8518209,7.33473842 62.239478,8.17896117 62.239478,9.09148674 L62.239478,10.584313 Z" id="Fill-15" fill="#FEFEFE" mask="url(#mask-19)"></path>
                <path d="M64.7947062,9.86778917 C64.7947062,9.95303108 64.8035292,10.038273 64.8206236,10.1153186 C64.9325644,10.5415281 65.3025756,10.8486176 65.7586104,10.8486176 C66.4214323,10.8486176 66.8261839,10.3284233 66.8261839,9.48420058 C66.8261839,8.75035517 66.473267,8.15366181 65.7674333,8.15366181 C65.3367645,8.15366181 64.9413873,8.46020483 64.8288951,8.92138542 C64.8118007,8.99788456 64.7947062,9.09186923 64.7947062,9.19405024 L64.7947062,9.86778917 Z M63.7359557,5.5177197 L64.7947062,5.5177197 L64.7947062,7.99957067 L64.8118007,7.99957067 C65.0704225,7.59904298 65.5264573,7.33457449 66.1550904,7.33457449 C67.1791007,7.33457449 67.9103003,8.17879725 67.9020288,9.44157963 C67.9020288,10.9338595 66.9463962,11.6759012 66.0001379,11.6759012 C65.4575282,11.6759012 64.9755761,11.4709928 64.6739425,10.9595413 L64.6568481,10.9595413 L64.6050134,11.582463 L63.7017669,11.582463 C63.7188613,11.300509 63.7359557,10.8404212 63.7359557,10.422408 L63.7359557,5.5177197 Z" id="Fill-16" fill="#FEFEFE" mask="url(#mask-19)"></path>
                <polygon id="Fill-17" fill="#FEFEFE" mask="url(#mask-19)" points="69.1485422 11.5825176 70.2072927 11.5825176 70.2072927 5.51777434 69.1485422 5.51777434"></polygon>
                <path d="M74.3295269,9.06602345 C74.3383498,8.68243486 74.1663029,8.05131688 73.4604692,8.05131688 C72.8059187,8.05131688 72.5307539,8.6398139 72.4877421,9.06602345 L74.3295269,9.06602345 Z M72.4877421,9.79986886 C72.5136594,10.5501069 73.1070009,10.8746819 73.7786458,10.8746819 C74.2694208,10.8746819 74.6140661,10.7976363 74.9405142,10.6867126 L75.0960182,11.4030725 C74.7342784,11.5566172 74.2346805,11.6675409 73.6325161,11.6675409 C72.2726834,11.6675409 71.4714519,10.8402573 71.4714519,9.56927857 C71.4714519,8.41796637 72.177837,7.33441057 73.5205753,7.33441057 C74.8804081,7.33441057 75.3281713,8.44364823 75.3281713,9.35617379 C75.3281713,9.55233947 75.3105255,9.70588419 75.2939825,9.79986886 L72.4877421,9.79986886 Z" id="Fill-18" fill="#FEFEFE" mask="url(#mask-19)"></path>
                <path d="M80.5859155,10.9168657 C81.1880799,10.9168657 81.6099258,10.3371115 81.6099258,9.4928887 C81.6099258,8.8442852 81.3171151,8.09350069 80.5947384,8.09350069 C79.8453415,8.09350069 79.5437079,8.81860334 79.5437079,9.5098278 C79.5437079,10.3114296 79.9490109,10.9168657 80.5770926,10.9168657 L80.5859155,10.9168657 Z M80.5517267,11.676393 C79.3722124,11.676393 78.4507686,10.8742448 78.4507686,9.53550966 C78.4507686,8.17054627 79.355118,7.33451985 80.6201043,7.33451985 C81.8679962,7.33451985 82.7034166,8.20442446 82.7034166,9.46720684 C82.7034166,10.9939113 81.6187487,11.676393 80.5599982,11.676393 L80.5517267,11.676393 Z" id="Fill-19" fill="#FEFEFE" mask="url(#mask-19)"></path>
                <path d="M83.9499851,8.66527719 C83.9499851,8.18770393 83.9328907,7.78662982 83.9152448,7.42817667 L84.8361372,7.42817667 L84.8879719,8.05109831 L84.9138892,8.05109831 C85.103582,7.72706977 85.5596168,7.33473842 86.257179,7.33473842 C86.9883786,7.33473842 87.7460469,7.80356892 87.7460469,9.11716859 L87.7460469,11.5820805 L86.6872964,11.5820805 L86.6872964,9.23683512 C86.6872964,8.63959534 86.4634147,8.18770393 85.8866163,8.18770393 C85.4647704,8.18770393 85.1725111,8.48605061 85.0605703,8.80188282 C85.02583,8.88712472 85.0087356,9.01498759 85.0087356,9.13410769 L85.0087356,11.5820805 L83.9499851,11.5820805 L83.9499851,8.66527719 Z" id="Fill-20" fill="#FEFEFE" mask="url(#mask-19)"></path>
                <path d="M92.6242952,6.36216102 L92.6242952,7.42823131 L93.6312111,7.42823131 L93.6312111,8.21289401 L92.6242952,8.21289401 L92.6242952,10.0384916 C92.6242952,10.5504894 92.7621533,10.8062152 93.1663534,10.8062152 C93.3554948,10.8062152 93.4591641,10.7974724 93.5793764,10.7635942 L93.5970223,11.5564532 C93.4415183,11.6165597 93.1580819,11.6679234 92.830531,11.6679234 C92.4346024,11.6679234 92.1164258,11.5395142 91.9184615,11.3264094 C91.685757,11.0876227 91.5826391,10.7034877 91.5826391,10.1576117 L91.5826391,8.21289401 L90.9887462,8.21289401 L90.9887462,7.42823131 L91.5826391,7.42823131 L91.5826391,6.65231137 L92.6242952,6.36216102 Z" id="Fill-21" fill="#FEFEFE" mask="url(#mask-19)"></path>
                <path d="M94.8100636,5.5177197 L95.8688142,5.5177197 L95.8688142,7.99137433 L95.8859086,7.99137433 C96.0154953,7.79520866 96.1958137,7.63292117 96.4108724,7.52254383 C96.6264825,7.4028773 96.8757301,7.33457449 97.1426234,7.33457449 C97.8567286,7.33457449 98.6061255,7.80395142 98.6061255,9.13449019 L98.6061255,11.582463 L97.547375,11.582463 L97.547375,9.24541395 C97.547375,8.64817417 97.3234933,8.18754001 96.7378719,8.18754001 C96.3248489,8.18754001 96.0325897,8.46020483 95.9118259,8.77603703 C95.8776371,8.8700217 95.8688142,8.98094547 95.8688142,9.09186923 L95.8688142,11.582463 L94.8100636,11.582463 L94.8100636,5.5177197 Z" id="Fill-22" fill="#FEFEFE" mask="url(#mask-19)"></path>
                <path d="M102.701395,9.06602345 C102.710218,8.68243486 102.538171,8.05131688 101.832337,8.05131688 C101.177786,8.05131688 100.902622,8.6398139 100.85961,9.06602345 L102.701395,9.06602345 Z M100.85961,9.79986886 C100.885527,10.5501069 101.478869,10.8746819 102.150514,10.8746819 C102.641289,10.8746819 102.985934,10.7976363 103.312382,10.6867126 L103.467886,11.4030725 C103.106146,11.5566172 102.606548,11.6675409 102.004384,11.6675409 C100.644551,11.6675409 99.8433196,10.8402573 99.8433196,9.56927857 C99.8433196,8.41796637 100.549705,7.33441057 101.892443,7.33441057 C103.252276,7.33441057 103.700039,8.44364823 103.700039,9.35617379 C103.700039,9.55233947 103.682393,9.70588419 103.66585,9.79986886 L100.85961,9.79986886 Z" id="Fill-23" fill="#FEFEFE" mask="url(#mask-19)"></path>
                <path d="M26.7806539,17.1584313 C26.7541851,14.3137558 29.1319624,12.9285748 29.2405946,12.8646433 C27.8950991,10.9182864 25.806824,10.6532715 25.0739701,10.631961 C23.3220688,10.4500023 21.6214507,11.6728959 20.7303357,11.6728959 C19.8199205,11.6728959 18.4424419,10.6505394 16.9629483,10.6800462 C15.055543,10.7106459 13.2716587,11.8040373 12.2939687,13.5023184 C10.2757255,16.9655442 11.7811364,22.0549233 13.714459,24.855885 C14.6827746,26.2263126 15.8132114,27.7573884 17.292705,27.7027462 C18.7402155,27.6431861 19.280068,26.7891278 21.0281093,26.7891278 C22.760159,26.7891278 23.2680284,27.7027462 24.7772994,27.6683215 C26.3312364,27.6431861 27.3083749,26.2913369 28.2419502,24.9072487 C29.3613584,23.336284 29.809673,21.7888155 29.8273189,21.7084914 C29.7909243,21.6970165 26.8104313,20.5697469 26.7806539,17.1584313" id="Fill-24" fill="#FEFEFE" mask="url(#mask-19)"></path>
                <path d="M23.9289755,8.79084508 C24.7075983,7.82586296 25.2419364,6.51226328 25.0913954,5.18063166 C23.96537,5.23035611 22.5564598,5.95272665 21.7453025,6.89749114 C21.0273373,7.72914618 20.3838155,9.0924703 20.5503481,10.373831 C21.8180916,10.4672693 23.1161639,9.74052738 23.9289755,8.79084508" id="Fill-25" fill="#FEFEFE" mask="url(#mask-19)"></path>
                <path d="M44.2505893,22.5911823 L43.2519449,19.5323092 C43.144967,19.2208484 42.9470027,18.4842708 42.6552949,17.3264016 L42.6200032,17.3264016 C42.5025481,17.8252853 42.315061,18.5602236 42.057542,19.5323092 L41.0754406,22.5911823 L44.2505893,22.5911823 Z M47.704763,27.4767458 L45.6881741,27.4767458 L44.5825518,24.0348305 L40.7434782,24.0348305 L39.6896905,27.4767458 L37.7260391,27.4767458 L41.5331296,15.7625404 L43.881681,15.7625404 L47.704763,27.4767458 Z" id="Fill-26" fill="#FEFEFE" mask="url(#mask-19)"></path>
                <path d="M55.5626221,23.2172732 C55.5626221,22.3949073 55.375135,21.7173434 55.0018151,21.1834887 C54.5921007,20.6283234 54.041771,20.3491015 53.3535832,20.3491015 C52.8854169,20.3491015 52.459711,20.5042855 52.0819796,20.8097357 C51.7020426,21.1190108 51.4527951,21.5206314 51.3364428,22.0195151 C51.2774395,22.2517446 51.2493165,22.4413533 51.2493165,22.591073 L51.2493165,24.0002966 C51.2493165,24.6144755 51.4384578,25.1330305 51.817292,25.5548686 C52.1988833,25.9794389 52.6924155,26.1887187 53.3000942,26.1887187 C54.013648,26.1887187 54.569492,25.9182396 54.9654206,25.3729099 C55.3646578,24.8275803 55.5626221,24.1101276 55.5626221,23.2172732 M57.4920846,23.148424 C57.4920846,24.5849687 57.1005675,25.7204346 56.3164304,26.5548218 C55.6150082,27.2968635 54.7431933,27.6667916 53.7042943,27.6667916 C52.5815776,27.6667916 51.7742803,27.2657175 51.2829538,26.4673942 L51.2493165,26.4673942 L51.2493165,30.9163661 L49.3540427,30.9163661 L49.3540427,21.8096889 C49.3540427,20.9064525 49.3308825,19.9808128 49.2840108,19.0294912 L50.9493371,19.0294912 L51.0552122,20.3682263 L51.0910553,20.3682263 C51.7218942,19.3595304 52.6819383,18.8557288 53.9667762,18.8557288 C54.9709349,18.8557288 55.8118696,19.2496995 56.4835145,20.0381871 C57.1557108,20.8272212 57.4920846,21.8632383 57.4920846,23.148424" id="Fill-27" fill="#FEFEFE" mask="url(#mask-19)"></path>
                <path d="M65.3672587,23.2172732 C65.3672587,22.3949073 65.1797716,21.7173434 64.8047975,21.1834887 C64.3950831,20.6283234 63.8464076,20.3491015 63.1571169,20.3491015 C62.6883992,20.3491015 62.2637962,20.5042855 61.884962,20.8097357 C61.5050249,21.1190108 61.2574317,21.5206314 61.1410794,22.0195151 C61.0804218,22.2517446 61.0522988,22.4413533 61.0522988,22.591073 L61.0522988,24.0002966 C61.0522988,24.6144755 61.2408887,25.1330305 61.6213772,25.5548686 C62.0018657,25.9794389 62.4948464,26.1887187 63.1047308,26.1887187 C63.8166303,26.1887187 64.3735772,25.9182396 64.7700572,25.3729099 C65.1665372,24.8275803 65.3672587,24.1101276 65.3672587,23.2172732 M67.295067,23.148424 C67.295067,24.5849687 66.9041013,25.7204346 66.1194127,26.5548218 C65.4179905,27.2968635 64.5478299,27.6667916 63.5067252,27.6667916 C62.3845599,27.6667916 61.5789169,27.2657175 61.0875905,26.4673942 L61.0522988,26.4673942 L61.0522988,30.9163661 L59.1586793,30.9163661 L59.1586793,21.8096889 C59.1586793,20.9064525 59.1344163,19.9808128 59.0886474,19.0294912 L60.7539738,19.0294912 L60.8598488,20.3682263 L60.8962434,20.3682263 C61.5248765,19.3595304 62.4832663,18.8557288 63.7714128,18.8557288 C64.7755715,18.8557288 65.6148519,19.2496995 66.2881511,20.0381871 C66.9603474,20.8272212 67.295067,21.8632383 67.295067,23.148424" id="Fill-28" fill="#FEFEFE" mask="url(#mask-19)"></path>
                <path d="M78.2574914,24.1909981 C78.2574914,25.1871263 77.9095375,25.9974708 77.206461,26.6242174 C76.4366611,27.3083384 75.3641247,27.649306 73.987749,27.649306 C72.7166969,27.649306 71.6954438,27.406148 70.9228867,26.919832 L71.3618271,25.3559708 C72.1944903,25.8543082 73.1060083,26.102384 74.1007927,26.102384 C74.8143464,26.102384 75.369639,25.943375 75.7683248,25.6253571 C76.1653562,25.3057 76.3633205,24.8783976 76.3633205,24.3450892 C76.3633205,23.8702481 76.1995451,23.4680811 75.873097,23.1440526 C75.5466489,22.8183848 75.0001792,22.517306 74.2397537,22.2380841 C72.1702272,21.4719998 71.137394,20.3523801 71.137394,18.8786786 C71.137394,17.9153357 71.4985824,17.1257552 72.2242676,16.5121228 C72.9482986,15.8963046 73.9133056,15.5875759 75.1181858,15.5875759 C76.1945822,15.5875759 77.0890058,15.7744524 77.8009053,16.1443804 L77.3283276,17.673817 C76.6616456,17.3153638 75.9078372,17.1355908 75.0646968,17.1355908 C74.3980148,17.1355908 73.8785654,17.2967855 73.5052455,17.6219069 C73.1909289,17.9115108 73.0321164,18.2655926 73.0321164,18.6819665 C73.0321164,19.1447863 73.2118834,19.5283749 73.574726,19.8283609 C73.8890426,20.1064899 74.4625325,20.4081152 75.2935413,20.7332365 C76.3109344,21.1392285 77.0575742,21.6135232 77.5384234,22.1572136 C78.0176183,22.7030896 78.2574914,23.3806535 78.2574914,24.1909981" id="Fill-29" fill="#FEFEFE" mask="url(#mask-19)"></path>
                <path d="M84.5186775,20.4369116 L82.4315052,20.4369116 L82.4315052,24.5383589 C82.4315052,25.5814794 82.7998621,26.10222 83.5376789,26.10222 C83.8746042,26.10222 84.1558348,26.0732596 84.3780622,26.0164317 L84.4298968,27.4409551 C84.0582313,27.5802929 83.565802,27.6491421 82.9575719,27.6491421 C82.2092779,27.6491421 81.6242079,27.4234696 81.2040163,26.9726711 C80.7832732,26.5202332 80.5720745,25.7601596 80.5720745,24.6951821 L80.5720745,20.4369116 L79.3269398,20.4369116 L79.3269398,19.0282344 L80.5720745,19.0282344 L80.5720745,17.4829516 L82.4315052,16.9256007 L82.4315052,19.0282344 L84.5186775,19.0282344 L84.5186775,20.4369116 Z" id="Fill-30" fill="#FEFEFE" mask="url(#mask-19)"></path>
                <path d="M91.9724468,23.24372 C91.9724468,22.465068 91.8037084,21.7978861 91.4634745,21.2399888 C91.0675459,20.5657034 90.4995703,20.2285607 89.7634079,20.2285607 C89.0018795,20.2285607 88.4234267,20.5657034 88.0269467,21.2399888 C87.6872642,21.7978861 87.5201801,22.4770893 87.5201801,23.2797839 C87.5201801,24.058436 87.6872642,24.7256178 88.0269467,25.2829688 C88.4355582,25.9567077 89.0084967,26.2938504 89.7474163,26.2938504 C90.4703444,26.2938504 91.03832,25.9517899 91.4463801,25.2654833 C91.7970912,24.6966575 91.9724468,24.0229185 91.9724468,23.24372 M93.9377525,23.1830671 C93.9377525,24.481367 93.5638812,25.5468909 92.8155872,26.381278 C92.0308986,27.2397077 90.9897939,27.6664637 89.6939273,27.6664637 C88.4410725,27.6664637 87.4462882,27.255554 86.7035085,26.4326417 C85.9601774,25.6102759 85.5896147,24.573166 85.5896147,23.3234977 C85.5896147,22.0126302 85.971206,20.9410957 86.7382487,20.1083478 C87.5025343,19.2723214 88.5348161,18.855401 89.8328884,18.855401 C91.082986,18.855401 92.0904533,19.2668571 92.8503274,20.0897694 C93.5760127,20.8908248 93.9377525,21.9202848 93.9377525,23.1830671" id="Fill-31" fill="#FEFEFE" mask="url(#mask-19)"></path>
                <path d="M100.092677,20.6797418 C99.9057418,20.64641 99.7072261,20.6283781 99.4971303,20.6283781 C98.8321026,20.6283781 98.3148588,20.8786396 97.9520162,21.3764305 C97.6376996,21.816847 97.4794385,22.3725587 97.4794385,23.0435655 L97.4794385,27.4755983 L95.5869219,27.4755983 L95.6029134,21.6895305 C95.6029134,20.7158057 95.5786504,19.8295084 95.5334329,19.0295458 L97.1827677,19.0295458 L97.2522482,20.64641 L97.30298,20.64641 C97.5025986,20.0906983 97.8196724,19.6437247 98.2508926,19.3082213 C98.6710843,19.0071425 99.1287733,18.8557835 99.6200997,18.8557835 C99.7943524,18.8557835 99.9537164,18.8678048 100.092677,18.8891153 L100.092677,20.6797418 Z" id="Fill-32" fill="#FEFEFE" mask="url(#mask-19)"></path>
                <path d="M106.756795,22.3657284 C106.77003,21.8111095 106.64706,21.3297113 106.390093,20.9237194 C106.06199,20.4024324 105.556878,20.1412424 104.879719,20.1412424 C104.261563,20.1412424 103.758105,20.3969681 103.372654,20.9067803 C103.056683,21.3127722 102.869196,21.7979954 102.812949,22.3657284 L106.756795,22.3657284 Z M108.562737,22.8525908 C108.562737,23.1897335 108.540128,23.4722339 108.494359,23.7044635 L102.812949,23.7044635 C102.834455,24.5388506 103.110172,25.1765257 103.636238,25.6174886 C104.11433,26.0114593 104.735243,26.2059857 105.49622,26.2059857 C106.334949,26.2059857 107.101992,26.073205 107.792937,25.8070972 L108.090159,27.1108613 C107.284516,27.458386 106.331641,27.6332412 105.23043,27.6332412 C103.910852,27.6332412 102.871953,27.2474669 102.118144,26.4764648 C101.36599,25.7071019 100.987156,24.6710849 100.987156,23.3738779 C100.987156,22.1007135 101.337867,21.039561 102.040392,20.1926061 C102.775452,19.2893697 103.770236,18.8385712 105.020334,18.8385712 C106.247823,18.8385712 107.179744,19.2893697 107.812237,20.1926061 C108.312387,20.9116981 108.562737,21.7979954 108.562737,22.8525908 L108.562737,22.8525908 Z" id="Fill-33" fill="#FEFEFE" mask="url(#mask-19)"></path>
            </g>
        </g>
    </g>
</svg>