<svg width="24" height="24" viewBox="0 0 24 24" xmlns="http://www.w3.org/2000/svg">
    <path d="M13.746 5.214c2.284 2.274 4.085 5.29 3.668 7.273 1.734.665 2.742 1.646 2.815 2.763l.004.13v3.392c-.042 1.972-2.825 3.205-5.986 3.595l-.433.048a18.05 18.05 0 0 1-1.753.085c-1.97 0-3.997-.327-5.542-.96-1.483-.599-2.514-1.487-2.62-2.624l-.009-.144V15.38c0-.95.654-1.801 1.86-2.452l.176-.091-.198-.2C3.765 10.61 2.25 8.086 2.25 6.223c0-.606.16-1.14.514-1.565l.101-.114L5.281 2.14c1.323-1.313 3.9-.46 6.292 1.241l.348.255c.347.26.688.538 1.02.828l.327.294c.162.15.322.301.478.456zm2.072 13.522c-.82.19-1.708.31-2.628.365l-.396.02v1.911a15.198 15.198 0 0 0 2.734-.358l.29-.07v-1.868zm-7.051.102v1.875c.66.146 1.398.247 2.21.3l.352.02V19.12a17.17 17.17 0 0 1-2.562-.283zm-3.412-1.25v1.148c0 .463.634 1.03 1.765 1.484l.182.071v-1.816c-.769-.248-1.428-.545-1.947-.887zm13.413 0c-.351.23-.772.44-1.245.627l-.241.092v1.795c.903-.41 1.423-.885 1.481-1.29l.005-.076v-1.148zm-2.108-3.836-2.24 2.26c-.447.42-1.026.617-1.685.617-1.57 0-3.62-1.062-5.442-2.545l-.218-.18-.163.069c-.96.42-1.557.952-1.557 1.406 0 .53.9 1.337 2.87 1.853 2.482.64 5.82.581 8.105-.13 1.684-.517 2.438-1.236 2.438-1.723 0-.438-.602-1.068-1.923-1.56l-.185-.067zm-3.998-.131-1.274 1.257c.93.342 1.633.375 1.963.129l.058-.05.82-.806-.18-.044-.186-.05a6.514 6.514 0 0 1-.953-.328l-.248-.108zm-3.749-2.58L7.8 12.146l-.249.24c.417.377.828.719 1.23 1.017.334.25.663.472.98.666l.236.14 1.325-1.315a15.982 15.982 0 0 1-1.567-1.126 19.373 19.373 0 0 1-.842-.727zM7.009 2.954c-.315 0-.549.073-.688.218-.38.37-.322 1.57.703 3.32.586 1.003 1.413 2.05 2.394 3.016a16.025 16.025 0 0 0 2.459 2.018l.309.198c.007 0 .007.007.015.007.141.083.283.168.426.246l.218.11c.964.506 1.732.706 2.26.705l.096-.002c.24-.013.423-.07.546-.16l.056-.048.176-.335v-.014l.015-.08c.171-1.04-.763-3.401-3.288-5.908C10.42 3.978 8.18 2.954 7.009 2.954zM6.262 8.01 4.93 9.341c.365.56.814 1.152 1.353 1.759l.236.26 1.362-1.35A17.297 17.297 0 0 1 6.262 8.01zm15.488.515a.75.75 0 0 1 .087 1.495l-.087.005h-2.197a.75.75 0 0 1-.087-1.495l.087-.005h2.197zM4.74 4.734l-.813.814c-.335.325-.285 1.171.195 2.293l.076.17 1.296-1.286c-.374-.72-.623-1.388-.755-1.99zm16.65.477a.75.75 0 0 1-.293.953l-.078.041-2.073.946a.75.75 0 0 1-.7-1.323l.078-.041 2.072-.946a.75.75 0 0 1 .994.37zm-3.393-3.343a.75.75 0 0 1 .364.928l-.035.08-1.017 2a.75.75 0 0 1-1.372-.6l.035-.08 1.017-2a.75.75 0 0 1 1.008-.328z" fill="#10A310" fill-rule="evenodd"/>
</svg>
