<svg width="24" height="24" viewBox="0 0 24 24" xmlns="http://www.w3.org/2000/svg">
    <path d="m16.794 3.75.164.006c.867.064 1.644.63 2.036 1.497L21 9.69l-.109.06.109.001a2.25 2.25 0 0 1 2.246 2.118l.004.132v6a3 3 0 1 1-6 0v-.75H6.75V18a3 3 0 0 1-2.85 2.996L3.75 21a3 3 0 0 1-3-3v-6A2.25 2.25 0 0 1 3 9.75h.1L3 9.69l1.852-4.437c.362-.867 1.08-1.433 1.88-1.497l.15-.006h9.912zM5.25 17.25h-3V18a1.5 1.5 0 0 0 3 0v-.75zm16.5 0h-3V18a1.5 1.5 0 0 0 3 0v-.75zm-.75-6H3a.75.75 0 0 0-.75.75v3.75h19.5V12a.75.75 0 0 0-.663-.745L21 11.25zM5.25 12a1.5 1.5 0 1 1 0 3 1.5 1.5 0 0 1 0-3zm13.5 0a1.5 1.5 0 1 1 0 3 1.5 1.5 0 0 1 0-3zM6.882 5.563c-.255 0-.49.153-.63.403l-.047.098-1.538 3.685h14.526l-1.665-3.685-.052-.098a.802.802 0 0 0-.682-.403H6.882z" fill="#10A310" fill-rule="evenodd"/>
</svg>
