<svg width="24" height="24" viewBox="0 0 24 24" xmlns="http://www.w3.org/2000/svg">
    <path d="M12 .75C18.213.75 23.25 5.787 23.25 12S18.213 23.25 12 23.25.75 18.213.75 12 5.787.75 12 .75zm0 1.5c-5.385 0-9.75 4.365-9.75 9.75s4.365 9.75 9.75 9.75 9.75-4.365 9.75-9.75S17.385 2.25 12 2.25zM8.914 7.505 9 7.5h6a.75.75 0 0 1 .088 1.495L15 9h-1.309c.312.416.517.916.61 1.499l.7.001a.75.75 0 0 1 .087 1.495L15 12h-.706c-.253 1.403-1.245 2.314-2.876 2.733l-.042.01 3.246 1.856c.334.19.466.6.318.945l-.039.078a.75.75 0 0 1-.944.318l-.079-.039-5.25-3c-.668-.381-.397-1.401.372-1.401 2.211 0 3.383-.5 3.739-1.5H9.75a.75.75 0 0 1-.087-1.495l.087-.005h3.017c-.276-1.009-1.196-1.488-2.95-1.5H9a.75.75 0 0 1-.087-1.495z" fill="#10A310" fill-rule="evenodd"/>
</svg>
