<svg width="24" height="18" viewBox="0 0 24 18" xmlns="http://www.w3.org/2000/svg">
    <path d="M4.067 18c1.422 0 2.455-.396 3.1-1.188.644-.792.966-1.812.966-3.06v-1.008c0-.96-.21-1.776-.633-2.448-.422-.672-1.078-1.128-1.967-1.368.356-1.68.945-3.204 1.767-4.572.822-1.368 1.9-2.82 3.233-4.356H6.067A19.096 19.096 0 0 0 1.6 6.228C.533 8.604 0 10.776 0 12.744v1.008c0 1.248.322 2.268.967 3.06.644.792 1.677 1.188 3.1 1.188zm13.466 0c1.423 0 2.456-.396 3.1-1.188.645-.792.967-1.812.967-3.06v-1.008c0-.96-.211-1.776-.633-2.448-.423-.672-1.078-1.128-1.967-1.368.356-1.68.944-3.204 1.767-4.572.822-1.368 1.9-2.82 3.233-4.356h-4.467a19.096 19.096 0 0 0-4.466 6.228c-1.067 2.376-1.6 4.548-1.6 6.516v1.008c0 1.248.322 2.268.966 3.06.645.792 1.678 1.188 3.1 1.188z" fill="#10A310" fill-rule="nonzero" opacity=".4"/>
</svg>
