<svg width="24" height="24" viewBox="0 0 24 24" xmlns="http://www.w3.org/2000/svg">
    <path d="M5.947 8.25c.702 0 1.361.328 1.785.88l.087.122 2.555 3.832.024.041h.852a3.75 3.75 0 0 1 3.747 3.587l.003.163v2.25a.75.75 0 0 1-.663.745l-.087.005h-2.359a2.626 2.626 0 0 1-5.032 0H3a.75.75 0 0 1-.087-1.495L3 18.375h3.859a2.626 2.626 0 0 1 5.032 0H13.5v-1.5a2.25 2.25 0 0 0-2.118-2.246l-.132-.004H3a.75.75 0 0 1-.087-1.495L3 13.125h5.598l-2.027-3.041a.75.75 0 0 0-.53-.328l-.094-.006H3a.75.75 0 0 1-.087-1.495L3 8.25h2.947zM9.375 18a1.125 1.125 0 1 0 0 2.25 1.125 1.125 0 0 0 0-2.25zm6.75-15.75a5.625 5.625 0 0 1 5.625 5.625c0 1.378-.766 3.093-2.046 5.032-.813 1.232-1.882 2.582-2.299 2.998a.75.75 0 0 1-1.06-1.06c.097-.098.413-.468.745-.887.465-.587.935-1.23 1.362-1.877 1.128-1.708 1.798-3.209 1.798-4.206a4.125 4.125 0 1 0-8.25 0c0 .764.184 1.459.695 2.718a.75.75 0 0 1-1.39.564c-.578-1.423-.805-2.282-.805-3.282a5.625 5.625 0 0 1 5.625-5.625zm0 3a2.625 2.625 0 1 1 0 5.25 2.625 2.625 0 0 1 0-5.25zm0 1.5a1.125 1.125 0 1 0 0 2.25 1.125 1.125 0 0 0 0-2.25z" fill="#10A310" fill-rule="evenodd"/>
</svg>
